<svg xmlns="http://www.w3.org/2000/svg" width="150" height="261" viewBox="0 0 150 261" fill="none"><g clip-path="url(#clip0_178_467)"><path d="M53.2633 75.9693C56.5009 74.6766 57.8106 70.3372 56.19 66.2773C54.5675 62.2174 50.0276 58.4756 46.79 59.7682C43.5525 61.0609 42.8424 66.9007 44.463 70.9587C46.0837 75.0168 50.0258 77.2601 53.2633 75.9674V75.9693Z" fill="white"></path><path d="M65.1742 64.6464C68.993 64.6464 72.0908 60.6563 72.0908 55.7359C72.0908 50.8154 68.9948 45.0069 65.1742 45.0069C61.3535 45.0069 58.2576 50.8154 58.2576 55.7359C58.2576 60.6563 61.3535 64.6464 65.1742 64.6464Z" fill="white"></path><path d="M95.278 84.2821C90.6958 77.773 83.3561 71.1996 75.001 71.1996C66.6809 71.1996 59.3081 77.7712 54.724 84.2821C52.7686 87.0605 50.9989 90.0594 50.2576 93.3839C49.5163 96.7083 49.921 100.426 51.9813 103.127C54.0415 105.828 57.945 107.176 60.9967 105.714C62.8105 104.845 64.2803 103.092 66.2817 102.923C68.1194 102.769 69.7437 104.006 71.276 105.04C72.3834 105.788 73.7189 106.468 74.9992 106.476C76.2795 106.466 77.615 105.786 78.7224 105.04C80.2547 104.004 81.879 102.769 83.7167 102.923C85.7181 103.092 87.1878 104.845 89.0016 105.714C92.0534 107.176 95.9568 105.828 98.0171 103.127C100.077 100.426 100.484 96.7083 99.7407 93.3839C98.9994 90.0594 97.2316 87.0605 95.2744 84.2821H95.278ZM82.28 89.3791C81.3382 91.1002 79.85 92.6171 78.5936 93.7976C77.9185 94.4319 77.2084 95.0258 76.4689 95.5738C76.4689 95.5738 76.4653 95.5756 76.4653 95.5775C75.597 96.2173 74.4068 96.2173 73.5386 95.5775C73.5386 95.5775 73.5349 95.5756 73.5349 95.5738C72.7954 95.0258 72.0872 94.4319 71.4103 93.7976C70.1539 92.6171 68.6657 91.1002 67.7239 89.3791C66.9458 87.9578 66.5392 86.3948 66.9421 84.7676C67.3284 83.2083 68.5609 81.8366 70.0711 81.6454C71.8168 81.4248 73.8513 82.653 75.0029 84.0633C76.1544 82.653 78.1889 81.4229 79.9346 81.6454C81.4449 81.8366 82.6773 83.2065 83.0636 84.7676C83.4665 86.3948 83.0599 87.9578 82.2818 89.3791H82.28Z" fill="white"></path><path d="M84.8258 64.6464C88.6446 64.6464 91.7424 60.6563 91.7424 55.7359C91.7424 50.8154 88.6465 45.0069 84.8258 45.0069C81.0051 45.0069 77.9092 50.8154 77.9092 55.7359C77.9092 60.6563 81.0051 64.6464 84.8258 64.6464Z" fill="white"></path><path d="M103.212 59.77C99.9743 58.4774 95.4344 62.2211 93.8119 66.2791C92.1895 70.339 93.4992 74.6766 96.7386 75.9711C99.9762 77.2637 103.916 75.0204 105.539 70.9624C107.161 66.9025 106.451 61.0645 103.212 59.7719V59.77Z" fill="white"></path><path d="M150 75.7431C150 34.3386 116.421 0.774414 75.0009 0.774414C33.5804 0.774414 0 34.3386 0 75.7431C0 86.5971 2.3086 96.9105 6.4604 106.224H6.44936L72.685 260.774L143.551 106.224H143.54C147.691 96.9105 150 86.5971 150 75.7431ZM74.9991 124.138C48.2598 124.138 26.5829 102.471 26.5829 75.7431C26.5829 49.0153 48.2598 27.3477 74.9991 27.3477C101.738 27.3477 123.415 49.0153 123.415 75.7431C123.415 102.471 101.738 124.138 74.9991 124.138Z" fill="white"></path></g><defs><clipPath id="clip0_178_467"><rect width="150" height="260" fill="white" transform="translate(0 0.774414)"></rect></clipPath></defs></svg>