<svg xmlns="http://www.w3.org/2000/svg" width="240" height="258" viewBox="0 0 240 258" fill="none"><path d="M237.863 217.612C237.619 217.384 237.382 217.139 237.162 216.879C236.334 215.894 237.5 209.448 235.585 209.385C235.451 209.385 235.325 209.44 235.239 209.543L234.246 200.038C235.073 199.849 235.585 199.692 235.585 199.692C235.585 199.692 235.601 181.235 235.002 168.248C234.419 155.269 231.33 139.917 231.629 135.197C231.929 130.476 232.055 116.173 232.496 107.465C232.953 98.7409 235.002 82.6645 235.002 73.0737C235.002 70.1264 234.687 67.179 234.08 64.2947C233.733 62.561 233.332 61.0558 232.953 59.8107C233.82 59.4166 234.301 59.1881 234.301 59.1881C233.001 54.9247 231.172 50.8346 228.855 47.0283C224.19 39.0767 217.492 30.936 210.706 25.4432C200.304 17.0346 187.797 14.4971 180.721 13.9375C174.999 13.4962 164.234 15.1196 160.428 16.0495C159.892 16.1756 159.482 16.6012 159.372 17.1371C158.71 17.0504 158.032 17.0819 157.378 17.2474L157.347 17.2632C157.347 17.2632 157.284 14.0163 155.644 13.4095C155.424 13.3307 155.211 13.2283 155.006 13.1179C154.911 12.913 154.541 12.1171 154.423 11.7861C153.012 7.61727 146.716 -1.61883 137.472 0.508943C126.77 2.9677 124.421 11.4078 125.406 18.8156C125.58 20.1238 125.17 22.819 127.069 24.1429C127.235 24.1666 127.408 24.1666 127.574 24.1666C129.52 28.958 132.68 32.5437 134.201 33.45C138.772 36.1609 138.693 40.314 140.718 40.7317C141.924 40.9366 143.114 40.2825 143.587 39.1555C143.587 39.1555 147.85 42.8752 149.316 42.8752C152.508 42.8752 154.092 39.9751 155.408 37.2011C155.439 37.1381 155.51 36.9411 155.613 36.6495C156.188 36.6495 156.763 36.6652 157.339 36.7283C157.867 36.7756 158.442 36.8307 159.025 36.8938V36.9568H158.915C158.82 38.1074 158.907 39.2816 159.175 40.4243C159.624 41.6379 160.444 42.686 161.515 43.4189C162.571 44.2464 163.872 45.1842 165.227 46.0668C167.631 53.0018 173.99 71.5528 175.023 76.6752C175.89 81.0174 174.834 100.814 174.085 112.871C172.997 118.269 171.808 123.589 170.885 125.803C168.994 130.334 164.636 137.34 163.123 140.288C161.626 143.203 162.154 148.302 162.17 148.397C162.012 148.476 161.87 148.562 161.712 148.633C159.348 149.784 152.051 150.997 150.018 152.219C147.984 153.44 141.767 162.361 141.767 162.361C141.767 162.361 140.332 150.666 139.536 148.491C138.725 146.332 135.281 143.984 135.281 143.984C135.612 143.408 135.903 142.809 136.163 142.203V142.187C136.557 141.304 136.762 140.343 136.747 139.381C136.621 137.419 134.059 133.163 134.059 132.423C134.059 131.682 136.621 130.728 137.913 130.39C139.182 130.051 143.177 129.168 144.856 127.757C145.896 126.891 146.235 126.095 146.164 125.496C146.684 125.362 147.181 125.157 147.646 124.897C148.394 124.448 148.954 123.242 147.393 121.965C146.708 121.421 145.273 121.185 143.871 121.106V121.09C145.069 119.64 146.984 115.014 147.315 113.21C147.417 112.335 147.354 111.452 147.118 110.609C146.984 110.121 146.81 109.64 146.613 109.167C146.385 108.529 146.022 107.938 145.549 107.449C145.037 107.039 143.626 107.134 141.964 107.425C140.498 107.725 139.056 108.143 137.653 108.678C134.808 109.742 133.713 109.277 133.043 108.875C130.34 107.638 127.337 107.205 124.39 107.622C120.576 108.347 114.712 110.554 113.105 111.011C112.608 111.2 112.151 111.5 111.781 111.878C110.008 113.549 108.455 115.44 107.155 117.497C106.903 118.096 106.784 118.742 106.808 119.396C106.769 120.61 107.005 121.815 107.494 122.927C108.211 124.18 106.895 128.27 106.17 129.42C105.461 130.587 105.973 137.143 104.365 138.073C104.278 138.136 104.2 138.207 104.137 138.286C101.772 140.705 93.6633 159.398 88.8955 167.011C83.9386 174.915 73.8908 193.411 66.7903 200.598C61.5418 205.933 53.6691 218.511 52.2033 223.349C50.7217 228.227 52.5185 230.962 50.5089 231.813C48.5152 232.641 43.1248 238.472 41.2177 240.364C39.3106 242.255 31.5009 241.956 18.7343 240.892C5.96765 239.828 1.84609 245.644 0.206918 247.961C-1.41649 250.293 6.85028 249.229 13.1942 249.017C19.5381 248.804 28.5062 251.136 40.3429 250.924C48.6649 250.766 52.6367 248.205 54.7014 246.487V246.503C55.3161 245.998 55.7574 245.565 56.0963 245.289C56.1515 245.242 56.1988 245.21 56.2539 245.171C56.3249 245.116 56.3958 245.068 56.4746 245.021C56.6795 244.919 56.9001 244.856 57.1287 244.824H57.1996C57.7512 244.769 58.3029 244.871 58.7994 245.1C58.8466 245.124 58.8939 245.147 58.9412 245.171C59.2328 245.313 59.5086 245.486 59.7608 245.691L59.7766 245.707L59.8317 245.762C60.6907 246.526 61.3212 247.503 61.6522 248.607C61.9516 249.387 62.4639 250.065 63.1337 250.569C63.4883 250.845 63.8745 251.089 64.2685 251.294C64.3473 251.333 64.4183 251.373 64.4971 251.412C64.8517 251.586 65.2142 251.743 65.5767 251.885C65.624 251.901 65.6634 251.925 65.7107 251.94C65.821 251.98 65.9392 252.019 66.0495 252.051C66.1599 252.082 66.2781 252.129 66.3884 252.161L66.5145 252.2C67.539 252.516 68.595 252.736 69.6589 252.87C69.3279 254.643 70.313 256.393 71.9915 257.039C74.3242 258.166 90.8577 255.904 93.5214 255.904C96.1851 255.904 100.677 256.172 102.159 256.172C103.002 256.196 103.766 255.668 104.034 254.864C104.617 254.864 105.185 254.746 105.713 254.494C106.28 254.123 110.748 249.915 105.145 247.937C99.7077 246.061 88.5093 247.811 87.8001 247.921C88.1547 247.708 91.2439 245.872 98.502 239.812C106.256 233.381 104.294 226.951 104.208 224.405V224.35C104.152 222.286 105.39 218.519 107.368 216.667C107.77 216.249 108.258 215.918 108.802 215.697C110.055 215.114 111.269 214.429 112.419 213.664C114.909 212.072 117.313 210.346 119.622 208.51C119.622 208.51 126.533 224.516 126.533 226.699C126.533 228.882 128.716 230.016 128.716 230.016C128.716 230.016 129.528 235.273 130.095 236.014C130.663 236.754 135.84 236.006 136.242 236.006C136.644 236.006 142.232 236.25 142.31 234.146C142.389 232.042 139.316 231.151 136.455 226.005C133.594 220.859 127.55 200.693 127.55 200.693C127.479 200.795 127.377 200.929 127.258 201.071L127.29 201.031C127.763 200.425 128.196 199.794 128.598 199.14C131.262 194.601 133.129 189.636 134.115 184.458C134.312 183.907 139.536 181.015 143.193 179.052C146.834 177.09 148.331 172.567 149.324 169.659C150.317 166.751 153.706 158.46 155.983 158.334C158.261 158.232 158.544 156.695 158.828 156.356C159.096 156.041 161.35 155.702 164.218 153.48C164.234 153.559 164.494 154.756 165.495 154.756C166.843 154.599 168.175 154.331 169.491 153.968C169.491 153.968 172.391 154.512 172.998 154.15C173.604 153.787 173.904 152.03 173.904 152.03C175.708 150.225 177.292 148.215 178.624 146.04C180.074 143.322 180.326 135.157 180.169 132.856C180.098 131.745 181.185 128.207 182.478 124.337C182.352 125.236 182.249 126 182.194 126.615C181.312 136.048 183.234 143.574 184.842 155.087C186.465 166.585 188.908 194.412 188.908 194.412C189.287 194.672 189.689 194.908 190.098 195.121C189.886 196.642 189.531 198.139 189.042 199.597C188.688 198.904 188.042 198.399 187.285 198.226C187.285 198.226 185.898 199.944 185.835 201.205C185.772 202.466 178.057 209.109 176.788 209.298C175.511 209.487 165.889 212.403 164.565 213.42C163.241 214.436 164.069 217.1 164.069 217.1C164.053 217.124 164.045 217.155 164.037 217.179C163.911 217.463 163.525 218.55 164.242 218.92C165.07 219.354 174.739 219.575 180.019 219.283C185.323 218.968 190.823 218.708 197.301 218.487C203.771 218.266 207.696 217.857 208.791 215.453C209.902 213.049 207.239 210.268 207.239 210.268C207.239 210.268 206.199 202.97 205.45 202.489C205.009 202.269 204.52 202.182 204.031 202.229L202.928 195.515C203.622 195.302 204.047 195.137 204.047 195.137C204.047 195.137 200.217 149.035 199.768 141.95C199.429 136.332 200.722 132.218 202.172 127.734V127.686L202.179 127.718C202.495 126.741 202.818 125.732 203.133 124.692C203.196 124.487 203.267 124.298 203.322 124.093C203.685 122.848 204.173 121.146 204.717 119.223C205.946 114.888 207.459 109.443 208.515 105.629C209.28 102.878 209.808 100.971 209.808 100.971C211.731 105.865 213.338 128.388 213.638 133.258C213.937 138.113 218.815 153.306 219.982 163.362C221.18 173.378 221.676 198.194 221.676 198.194C222.125 198.581 222.614 198.927 223.134 199.203L222.133 206.453C222.031 206.501 221.936 206.572 221.873 206.666C221.298 207.588 219.58 213.79 217.972 215.445C216.38 217.1 209.114 222.711 207.885 224.784C207.152 226.06 206.75 227.502 206.703 228.976V229.213C206.703 229.213 205.284 230.04 207.058 230.804C208.823 231.569 220.407 232.05 225.427 230.804C230.447 229.575 230.794 227.14 233.04 226.84C235.286 226.541 239.549 224.713 239.549 222.065C239.644 220.402 239.045 218.779 237.894 217.581M166.788 145.599C166.788 145.599 166.788 145.583 166.78 145.575H166.788V145.599ZM162.729 148.042L163.974 147.286C163.927 147.317 163.887 147.349 163.84 147.372C163.478 147.617 163.099 147.829 162.729 148.042ZM164.321 153.409L164.337 153.393C164.337 153.393 164.392 153.362 164.423 153.338C164.691 153.125 164.975 152.897 165.235 152.644C165.637 152.29 165.984 151.88 166.267 151.431C165.818 152.258 165.141 152.944 164.321 153.401M194.196 53.3013C194.173 53.8371 194.149 54.4045 194.125 55.0035C194.125 52.1664 194.181 49.2427 194.181 49.2427L194.196 53.3013Z" fill="white"></path></svg>